<svg width="600" height="600" viewBox="0 0 600 600" xmlns="http://www.w3.org/2000/svg">
  <defs>
    <pattern id="leopard-spots" x="0" y="0" width="150" height="150" patternUnits="userSpaceOnUse">
      <!-- Organic curved C-shaped spots - large variation -->
      <path d="M 25 15 Q 32 10 42 12 Q 50 14 52 28 Q 50 42 38 48 Q 22 50 18 38 Q 15 22 25 15" fill="#121218" opacity="0.85"/>
      <path d="M 80 20 Q 90 18 105 25 Q 112 35 108 50 Q 95 58 80 52 Q 72 42 80 20" fill="#121218" opacity="0.75"/>
      <path d="M 10 70 Q 15 62 28 65 Q 40 68 42 82 Q 38 95 24 98 Q 8 94 10 70" fill="#121218" opacity="0.8"/>
      <path d="M 60 65 Q 72 60 85 68 Q 92 80 85 95 Q 68 102 58 90 Q 54 75 60 65" fill="#121218" opacity="0.7"/>
      <path d="M 110 75 Q 125 72 138 82 Q 142 95 132 108 Q 112 112 108 100 Q 105 85 110 75" fill="#121218" opacity="0.75"/>
      <path d="M 35 115 Q 48 110 60 118 Q 65 128 55 138 Q 40 140 32 130 Q 30 122 35 115" fill="#121218" opacity="0.7"/>
      <path d="M 85 115 Q 100 112 115 122 Q 120 135 110 145 Q 88 148 82 138 Q 80 125 85 115" fill="#121218" opacity="0.65"/>
      
      <!-- Small accent spots -->
      <circle cx="120" cy="15" r="6" fill="#121218" opacity="0.6"/>
      <circle cx="8" cy="45" r="5" fill="#121218" opacity="0.55"/>
      <circle cx="145" cy="55" r="5.5" fill="#121218" opacity="0.6"/>
      <circle cx="50" cy="50" r="4.5" fill="#121218" opacity="0.5"/>
      <circle cx="20" cy="130" r="4" fill="#121218" opacity="0.5"/>
    </pattern>
  </defs>
  
  <rect width="600" height="600" fill="url(#leopard-spots)"/>
</svg>
