<svg width="400" height="400" viewBox="0 0 400 400" xmlns="http://www.w3.org/2000/svg">
  <defs>
    <pattern id="leopard-rosette" x="0" y="0" width="120" height="120" patternUnits="userSpaceOnUse">
      <!-- Rosette 1 - Large curved C-shape -->
      <path d="M 30 20 Q 35 15 42 15 Q 50 15 52 25 Q 52 35 45 40 Q 35 45 25 40 Q 20 35 22 25 Q 24 18 30 20" fill="#121218" opacity="0.7"/>
      
      <!-- Rosette 2 - Curved form -->
      <path d="M 70 35 Q 78 32 85 38 Q 88 45 83 52 Q 73 55 68 48 Q 66 40 70 35" fill="#121218" opacity="0.65"/>
      
      <!-- Rosette 3 - Elongated C -->
      <path d="M 15 65 Q 18 58 28 60 Q 35 62 35 72 Q 33 82 23 85 Q 12 84 10 74 Q 8 68 15 65" fill="#121218" opacity="0.6"/>
      
      <!-- Rosette 4 - Central cluster -->
      <path d="M 50 65 Q 58 62 65 68 Q 68 78 60 85 Q 48 88 45 78 Q 44 70 50 65" fill="#121218" opacity="0.7"/>
      
      <!-- Rosette 5 - Large curved -->
      <path d="M 85 70 Q 92 65 102 70 Q 108 80 102 92 Q 88 98 82 88 Q 78 78 85 70" fill="#121218" opacity="0.65"/>
      
      <!-- Rosette 6 - Small accent -->
      <path d="M 105 25 Q 110 22 115 28 Q 116 35 110 38 Q 103 36 105 25" fill="#121218" opacity="0.55"/>
      
      <!-- Rosette 7 - Curved form upper right -->
      <path d="M 95 15 Q 105 12 110 20 Q 108 28 98 30 Q 90 28 95 15" fill="#121218" opacity="0.6"/>
      
      <!-- Rosette 8 - Lower left detail -->
      <path d="M 35 100 Q 42 98 48 105 Q 48 112 40 115 Q 32 113 35 100" fill="#121218" opacity="0.5"/>
      
      <!-- Small accent spots -->
      <circle cx="75" cy="15" r="4" fill="#121218" opacity="0.4"/>
      <circle cx="10" cy="35" r="3.5" fill="#121218" opacity="0.4"/>
      <circle cx="112" cy="50" r="3" fill="#121218" opacity="0.35"/>
      <circle cx="28" cy="105" r="3.5" fill="#121218" opacity="0.4"/>
    </pattern>
  </defs>
  
  <rect width="400" height="400" fill="url(#leopard-rosette)"/>
</svg>
